HIERARCHY
ROOT Hips
{
	OFFSET 0.00000 0.00000 0.00000
	CHANNELS 6 Xposition Yposition Zposition Zrotation Yrotation Xrotation 
	JOINT LHipJoint
	{
		OFFSET 0 0 0
		CHANNELS 3 Zrotation Yrotation Xrotation
		JOINT LeftHip
		{
			OFFSET 1.29432 -1.88279 0.59910
			CHANNELS 3 Zrotation Yrotation Xrotation
			JOINT LeftKnee
			{
				OFFSET 2.63039 -7.22694 0.00000
				CHANNELS 3 Zrotation Yrotation Xrotation
				JOINT LeftAnkle
				{
					OFFSET 2.70674 -7.43672 0.00000
					CHANNELS 3 Zrotation Yrotation Xrotation
					JOINT LeftToe
					{
						OFFSET 0.15066 -0.41394 2.09027
						CHANNELS 3 Zrotation Yrotation Xrotation
						End Site
						{
							OFFSET 0.00000 -0.00000 1.07518
						}
					}
				}
			}
		}
	}
	JOINT RHipJoint
	{
		OFFSET 0 0 0
		CHANNELS 3 Zrotation Yrotation Xrotation
		JOINT RightHip
		{
			OFFSET -1.37068 -1.88279 0.59910
			CHANNELS 3 Zrotation Yrotation Xrotation
			JOINT RightKnee
			{
				OFFSET -2.57023 -7.06166 0.00000
				CHANNELS 3 Zrotation Yrotation Xrotation
				JOINT RightAnkle
				{
					OFFSET -2.76461 -7.59570 0.00000
					CHANNELS 3 Zrotation Yrotation Xrotation
					JOINT RightToe
					{
						OFFSET -0.24175 -0.64785 2.19719
						CHANNELS 3 Zrotation Yrotation Xrotation
						End Site
						{
							OFFSET -0.00000 -0.00000 1.14803
						}
					}
				}
			}
		}
	}
	JOINT lowerback
	{
		OFFSET 0 0 0
		CHANNELS 3 Zrotation Yrotation Xrotation
		JOINT Chest
		{
			OFFSET -0.03138 2.03983 -0.23106
			CHANNELS 3 Zrotation Yrotation Xrotation
			JOINT Chest2
			{
				OFFSET -0.00325 2.06238 -0.06878
				CHANNELS 3 Zrotation Yrotation Xrotation
				JOINT lowerneck
				{
					OFFSET 0 0 0
					CHANNELS 3 Zrotation Yrotation Xrotation
					JOINT Neck
					{
						OFFSET -0.00002 1.75318 0.18090
						CHANNELS 3 Zrotation Yrotation Xrotation
						JOINT Head
						{
							OFFSET 0.08806 1.75856 -0.25387
							CHANNELS 3 Zrotation Yrotation Xrotation
							End Site
							{
								OFFSET 0.02554 1.78597 -0.10684
							}
						}
					}
				}
				JOINT LeftCollar
				{
					OFFSET 0 0 0
					CHANNELS 3 Zrotation Yrotation Xrotation
					JOINT LeftShoulder
					{
						OFFSET 3.09657 1.33597 -0.04414
CHANNELS 3 Zrotation Xrotation Yrotation
						JOINT LeftElbow
						{
OFFSET 0 -5.342980 -0.000000
CHANNELS 3 Zrotation Xrotation Yrotation
							JOINT LeftWrist
							{
OFFSET 0 -3.672620 -0.000000
CHANNELS 3 Zrotation Xrotation Yrotation
								JOINT lhand
								{
									OFFSET 0 0 0
CHANNELS 3 Zrotation Xrotation Yrotation
									JOINT LFingers
									{
OFFSET 0 -0.599300 -0.000000
CHANNELS 3 Zrotation Xrotation Yrotation
										End Site
										{
OFFSET 0 -0.483170 -0.000000
										}
									}
								}
								JOINT LThumb
								{
OFFSET 0 0.000000 0.000000
CHANNELS 3 Zrotation Xrotation Yrotation
									End Site
									{
OFFSET 0 -0.490550 0.490550
									}
								}
							}
						}
					}
				}
				JOINT RightCollar
				{
					OFFSET 0 0 0
					CHANNELS 3 Zrotation Yrotation Xrotation
					JOINT RightShoulder
					{
						OFFSET -3.16460 1.32273 -0.23382
CHANNELS 3 Zrotation Xrotation Yrotation
						JOINT RightElbow
						{
OFFSET 0 -5.549670 0.033480
CHANNELS 3 Zrotation Xrotation Yrotation
							JOINT RightWrist
							{
OFFSET 0 -3.694010 0.000000
CHANNELS 3 Zrotation Xrotation Yrotation
								JOINT rhand
								{
									OFFSET 0 0 0
CHANNELS 3 Zrotation Xrotation Yrotation
									JOINT RFingers
									{
OFFSET 0 -0.638110 0.000000
CHANNELS 3 Zrotation Xrotation Yrotation
										End Site
										{
OFFSET 0 -0.514460 0.000000
										}
									}
								}
								JOINT RThumb
								{
OFFSET 0 0.000000 0.000000
CHANNELS 3 Zrotation Xrotation Yrotation
									End Site
									{
OFFSET 0 -0.522320 0.522320
									}
								}
							}
						}
					}
				}
			}
		}
	}
}
MOTION
Frames: 6
Frame Time: 0.008333333333333333
3.769900 17.636600 -14.213800 -1.696100 3.140100 -2.290400 0.000000 0.000000 0.000000 -14.349400 0.129300 -14.756800 10.531500 17.698100 61.250600 -0.090500 -6.979300 -2.257700 0.062600 -1.614700 -4.441900 0.000000 0.000000 0.000000 24.753000 8.129600 -16.314700 -4.063000 -12.243800 36.599900 -0.734900 -4.923300 -18.718400 -0.022400 -0.965300 2.653300 -4.276800 -1.225800 5.453800 -0.220200 -1.831900 2.832200 2.266900 -0.958500 -0.010200 2.427100 1.985800 -11.230600 0.373400 2.169400 32.022700 0.015500 1.294500 12.475600 0.000000 0.000000 0.000000 -3.549200 -17.401000 -8.802400 16.462300 -26.143500 3.847400 21.401300 30.732600 -39.827400 0.000000 0.000000 0.000000 -7.125000 0.000000 0.000000 -21.724600 70.754500 13.554400 0.000000 0.000000 0.000000 1.566600 5.260500 10.952900 -12.661600 -20.789500 -2.331800 -10.106200 27.808100 -23.958200 0.000000 0.000000 0.000000 7.125000 0.000000 -0.000000 11.811000 6.114000 10.721700
3.733328 17.629771 -14.148142 -1.149182 3.178190 -2.056397 0.000000 0.000000 0.000000 -14.905929 -0.539323 -15.595690 10.763631 17.815607 62.009213 -0.094142 -7.083251 -2.259268 0.033818 -1.043502 -2.869891 0.000000 0.000000 0.000000 24.204464 7.734132 -16.647848 -4.139939 -12.343704 36.959909 -0.780578 -4.512859 -18.925694 -0.018809 -0.880622 2.420410 -5.268859 -1.245831 5.295016 -0.357435 -1.894625 2.808931 2.678808 -1.001395 0.091677 2.444956 2.007905 -11.451451 0.556616 2.128933 32.161959 0.080501 1.301430 12.578387 0.000000 0.000000 0.000000 -3.661194 -17.491748 -8.846307 16.555527 -26.267988 3.888677 21.968805 30.712215 -39.088717 0.000000 0.000000 0.000000 -7.125000 0.000000 0.000000 -19.942009 70.270509 12.221706 0.000000 0.000000 0.000000 1.464875 4.956337 11.464914 -12.689320 -20.830372 -2.341664 -10.342176 27.442173 -24.051326 0.000000 0.000000 0.000000 7.125000 0.000000 0.000000 11.669060 5.996189 10.613753
3.696925 17.622727 -14.082537 -0.622725 3.209737 -1.830356 0.000000 0.000000 0.000000 -15.438422 -1.200385 -16.430196 10.995563 17.932852 62.766976 -0.096564 -7.164051 -2.278471 0.008043 -0.513993 -1.412875 0.000000 0.000000 0.000000 23.680816 7.343453 -16.969634 -4.216242 -12.442750 37.316873 -0.827446 -4.099998 -19.143128 -0.016033 -0.809629 2.225209 -6.236224 -1.265451 5.145838 -0.490425 -1.956339 2.785657 3.081527 -1.043385 0.187342 2.462486 2.031540 -11.669458 0.739022 2.091107 32.300456 0.145594 1.309385 12.680292 0.000000 0.000000 0.000000 -3.771443 -17.580467 -8.884713 16.646661 -26.389681 3.929027 22.522806 30.683480 -38.344734 0.000000 0.000000 0.000000 -7.125000 0.000000 0.000000 -18.173764 69.776653 10.895895 0.000000 0.000000 0.000000 1.362658 4.656167 11.983784 -12.718277 -20.873063 -2.351972 -10.580697 27.069510 -24.141495 0.000000 0.000000 0.000000 7.125000 0.000000 0.000000 11.525472 5.880991 10.503650
3.667687 17.606591 -14.019205 -0.961438 2.964605 -1.940984 0.000000 0.000000 0.000000 -14.954583 -1.541677 -17.079293 11.219044 18.038978 63.488814 -0.047396 -6.265927 -3.043356 0.109465 -1.747340 -4.818362 0.000000 0.000000 0.000000 24.209573 7.155279 -16.810951 -4.265663 -12.505525 37.545109 -0.924669 -3.584796 -19.789292 -0.047749 -1.317344 3.623713 -6.159336 -1.267677 5.402857 -0.443887 -1.975359 2.762135 3.095691 -1.047078 0.020364 2.466230 2.119861 -11.767187 0.887133 2.165011 32.406785 0.214591 1.360677 12.744888 0.000000 0.000000 0.000000 -3.807914 -17.583350 -8.690469 16.649291 -26.393171 3.930190 22.505759 30.301721 -37.376601 0.000000 0.000000 0.000000 -7.125000 0.000000 0.000000 -17.012146 68.865630 9.861142 0.000000 0.000000 0.000000 1.239637 4.524901 12.792526 -12.799515 -20.992644 -2.381058 -10.926845 26.412016 -24.106642 0.000000 0.000000 0.000000 7.125000 0.000000 0.000000 11.312158 5.876287 10.302375
3.638274 17.590454 -13.955991 -1.261633 2.722685 -2.042087 0.000000 0.000000 0.000000 -14.516173 -1.893274 -17.733963 11.440579 18.143954 64.204099 0.000105 -5.398614 -3.784453 0.204342 -2.909004 -8.025711 0.000000 0.000000 0.000000 24.694302 6.969756 -16.664092 -4.315570 -12.568857 37.775458 -1.019501 -3.080202 -20.418041 -0.077381 -1.793717 4.935861 -6.125808 -1.268038 5.646967 -0.406762 -1.993079 2.739569 3.123873 -1.050759 -0.137191 2.471237 2.206795 -11.860377 1.033998 2.237159 32.504834 0.282494 1.411173 12.805065 0.000000 0.000000 0.000000 -3.841183 -17.593053 -8.508313 16.646934 -26.390003 3.929147 22.496201 29.911376 -36.376057 0.000000 0.000000 0.000000 -7.125000 0.000000 0.000000 -15.821759 67.924124 8.806986 0.000000 0.000000 0.000000 1.118530 4.388900 13.588724 -12.883502 -21.116222 -2.411163 -11.274733 25.765216 -24.076983 0.000000 0.000000 0.000000 7.125000 0.000000 0.000000 11.097960 5.866170 10.101423
3.605242 17.574318 -13.895188 -0.766716 2.547056 -1.946584 0.000000 0.000000 0.000000 -15.015541 -2.457593 -18.503654 11.621924 18.225192 64.784098 0.013207 -5.167343 -4.034491 0.164127 -2.590929 -7.142913 0.000000 0.000000 0.000000 24.270153 6.838945 -16.761315 -4.375512 -12.643671 38.049423 -1.064976 -2.794552 -20.687301 -0.063976 -1.623096 4.465377 -6.987360 -1.229897 5.624609 -0.563927 -1.983974 2.736736 3.441441 -1.054199 -0.100214 2.502347 2.265119 -11.859871 1.155147 2.273074 32.431993 0.327818 1.445216 12.774006 0.000000 0.000000 0.000000 -3.808354 -17.743542 -8.575691 16.541617 -26.249378 3.882559 22.641226 29.343820 -34.706472 0.000000 0.000000 0.000000 -7.125000 0.000000 0.000000 -14.037499 66.353380 7.352282 0.000000 0.000000 0.000000 1.036938 4.155150 14.125980 -13.024228 -21.322302 -2.462304 -11.658516 25.339195 -24.154529 0.000000 0.000000 0.000000 7.125000 0.000000 0.000000 10.865526 5.744312 9.907128
